# xmcd CD database file
#
# Track frame offsets:
#	150
#	15375
#	48697
#	70112
#	88877
#	119462
#	142777
#	197475
#	219662
#
# Disc length: 3266 seconds
#
# Revision: 2
# Processed by: cddbd v1.4PL0 Copyright (c) Steve Scherf et al.
# Submitted via: CDex 1.50beta10
#
DISCID=7c0cc009
DTITLE=Buddy Guy - Sweet Tea
DYEAR=2001
DGENRE=Blues
TTITLE0=Done Got Old
TTITLE1=Baby Please Don't Leave Me
TTITLE2=Look What All You Got
TTITLE3=Stay All Night
TTITLE4=Tramp
TTITLE5=She's Got the Devil In Her
TTITLE6=I Gotta Try You Girl
TTITLE7=Who's Been Foolin' You
TTITLE8=It's A Jungle Out There
EXTD=Silvertone Records YEAR: 2001
EXTT0=
EXTT1=
EXTT2=
EXTT3=
EXTT4=
EXTT5=
EXTT6=
EXTT7=
EXTT8=
PLAYORDER=
